<?xml version="1.0" encoding="UTF-8" standalone="no"?>
<!-- Created with Inkscape (http://www.inkscape.org/) -->

<svg
   xmlns:dc="http://purl.org/dc/elements/1.1/"
   xmlns:cc="http://creativecommons.org/ns#"
   xmlns:rdf="http://www.w3.org/1999/02/22-rdf-syntax-ns#"
   xmlns:svg="http://www.w3.org/2000/svg"
   xmlns="http://www.w3.org/2000/svg"
   xmlns:sodipodi="http://sodipodi.sourceforge.net/DTD/sodipodi-0.dtd"
   xmlns:inkscape="http://www.inkscape.org/namespaces/inkscape"
   width="361.81467"
   height="409.69522"
   id="svg9586"
   version="1.1"
   inkscape:version="0.48.4 r9939"
   sodipodi:docname="sipm.svg">
  <defs
     id="defs9588" />
  <sodipodi:namedview
     id="base"
     pagecolor="#ffffff"
     bordercolor="#666666"
     borderopacity="1.0"
     inkscape:pageopacity="0.0"
     inkscape:pageshadow="2"
     inkscape:zoom="0.98994949"
     inkscape:cx="34.594546"
     inkscape:cy="87.78033"
     inkscape:document-units="px"
     inkscape:current-layer="layer1"
     showgrid="false"
     inkscape:window-width="960"
     inkscape:window-height="1028"
     inkscape:window-x="-1"
     inkscape:window-y="24"
     inkscape:window-maximized="0"
     units="cm"
     fit-margin-top="1"
     fit-margin-left="1"
     fit-margin-right="1"
     fit-margin-bottom="1" />
  <metadata
     id="metadata9591">
    <rdf:RDF>
      <cc:Work
         rdf:about="">
        <dc:format>image/svg+xml</dc:format>
        <dc:type
           rdf:resource="http://purl.org/dc/dcmitype/StillImage" />
        <dc:title></dc:title>
      </cc:Work>
    </rdf:RDF>
  </metadata>
  <g
     inkscape:label="Layer 1"
     inkscape:groupmode="layer"
     id="layer1"
     transform="translate(-194.09267,-327.51457)">
    <g
       id="g9401"
       transform="matrix(1.6373749,0,0,1.6373749,-498.01048,-987.3074)">
      <path
         inkscape:connector-curvature="0"
         id="path8013-5"
         d="M 583.64696,1023.194 597.28402,864.60008 492.73323,824.9516 456.1152,833.79043"
         style="fill:none;stroke:#000000;stroke-width:0.61073369px;stroke-linecap:butt;stroke-linejoin:miter;stroke-opacity:1" />
      <path
         sodipodi:nodetypes="cc"
         inkscape:connector-curvature="0"
         id="path8015-8"
         d="M 456.36774,834.80058 445.40617,989.08884"
         style="fill:none;stroke:#000000;stroke-width:0.61073369px;stroke-linecap:butt;stroke-linejoin:miter;stroke-opacity:1" />
      <path
         sodipodi:nodetypes="ccc"
         inkscape:connector-curvature="0"
         id="path8017-2"
         d="m 454.28833,980.39487 11.9284,-134.48261 86.1155,32.07234"
         style="fill:none;stroke:#000000;stroke-width:0.61073369px;stroke-linecap:butt;stroke-linejoin:miter;stroke-opacity:1" />
      <path
         inkscape:connector-curvature="0"
         id="path8019-7"
         d="m 552.58477,879.2473 -12.87945,134.3503"
         style="fill:none;stroke:#000000;stroke-width:0.61073369px;stroke-linecap:butt;stroke-linejoin:miter;stroke-opacity:1" />
      <path
         inkscape:connector-curvature="0"
         id="path8021-0"
         d="m 548.54416,1029.76 16.16244,-157.0787 32.82996,-8.08122"
         style="fill:none;stroke:#000000;stroke-width:0.61073369px;stroke-linecap:butt;stroke-linejoin:miter;stroke-opacity:1" />
      <path
         inkscape:connector-curvature="0"
         id="path8023-3"
         d="M 564.45406,872.42877 457.37789,834.29551"
         style="fill:none;stroke:#000000;stroke-width:0.61073369px;stroke-linecap:butt;stroke-linejoin:miter;stroke-opacity:1" />
      <path
         inkscape:connector-curvature="0"
         id="path8025-0"
         d="m 550.56446,892.88435 -81.31728,-31.06219 1.51523,-13.38452"
         style="fill:none;stroke:#000000;stroke-width:0.61073369px;stroke-linecap:butt;stroke-linejoin:miter;stroke-opacity:1" />
      <path
         sodipodi:nodetypes="cc"
         inkscape:connector-curvature="0"
         id="path8027-2"
         d="M 473.28779,864.34755 464.80828,975.9993"
         style="fill:none;stroke:#000000;stroke-width:0.61073369px;stroke-linecap:butt;stroke-linejoin:miter;stroke-opacity:1" />
      <path
         inkscape:connector-curvature="0"
         id="path8029-0"
         d="m 542.48324,888.33867 1.26269,-13.13198"
         style="fill:none;stroke:#000000;stroke-width:0.61073369px;stroke-linecap:butt;stroke-linejoin:miter;stroke-opacity:1" />
      <path
         inkscape:connector-curvature="0"
         id="path8031-0"
         d="m 532.88679,885.05567 0.75762,-13.63706"
         style="fill:none;stroke:#000000;stroke-width:0.61073369px;stroke-linecap:butt;stroke-linejoin:miter;stroke-opacity:1" />
      <path
         inkscape:connector-curvature="0"
         id="path8033-7"
         d="m 516.21928,878.74222 1.01015,-13.13198"
         style="fill:none;stroke:#000000;stroke-width:0.61073369px;stroke-linecap:butt;stroke-linejoin:miter;stroke-opacity:1" />
      <path
         inkscape:connector-curvature="0"
         id="path8035-0"
         d="m 505.61268,875.20669 1.51522,-13.8896"
         style="fill:none;stroke:#000000;stroke-width:0.61073369px;stroke-linecap:butt;stroke-linejoin:miter;stroke-opacity:1" />
      <path
         inkscape:connector-curvature="0"
         id="path8037-1"
         d="m 540.46294,889.34882 -0.25254,11.11168 -55.55839,-20.96067 -1.26269,-1.26269 -0.50508,5.05077"
         style="fill:none;stroke:#000000;stroke-width:0.61073369px;stroke-linecap:butt;stroke-linejoin:miter;stroke-opacity:1" />
      <path
         inkscape:connector-curvature="0"
         id="path8039-4"
         d="m 483.64186,882.53029 -4.04061,2.27284 59.85154,22.4759 5.55584,-1.76777 z"
         style="fill:none;stroke:#000000;stroke-width:0.61073369px;stroke-linecap:butt;stroke-linejoin:miter;stroke-opacity:1" />
      <path
         inkscape:connector-curvature="0"
         id="path8041-6"
         d="m 546.27132,906.01634 -8.33376,82.57997 -5.55584,3.03046 7.57614,-84.0952"
         style="fill:none;stroke:#000000;stroke-width:0.61073369px;stroke-linecap:butt;stroke-linejoin:miter;stroke-opacity:1" />
      <path
         sodipodi:nodetypes="cc"
         inkscape:connector-curvature="0"
         id="path8045-7"
         d="M 538.94771,1012.84 454.15346,980.43499"
         style="fill:none;stroke:#000000;stroke-width:0.61073369px;stroke-linecap:butt;stroke-linejoin:miter;stroke-opacity:1" />
      <path
         sodipodi:nodetypes="cc"
         inkscape:connector-curvature="0"
         id="path8047-7"
         d="M 540.46294,1005.7689 464.7093,976.02452"
         style="fill:none;stroke:#000000;stroke-width:0.61073369px;stroke-linecap:butt;stroke-linejoin:miter;stroke-opacity:1" />
      <path
         sodipodi:nodetypes="cc"
         inkscape:connector-curvature="0"
         id="path8049-1"
         d="M 548.54416,1030.7702 444.63624,988.91664"
         style="fill:none;stroke:#000000;stroke-width:0.61073369px;stroke-linecap:butt;stroke-linejoin:miter;stroke-opacity:1" />
      <path
         inkscape:connector-curvature="0"
         id="path8051-7"
         d="m 583.39442,1023.6991 -34.59772,7.5761"
         style="fill:none;stroke:#000000;stroke-width:0.61073369px;stroke-linecap:butt;stroke-linejoin:miter;stroke-opacity:1" />
      <path
         inkscape:connector-curvature="0"
         id="path8057-0"
         d="m 548.54416,892.12674 -1.51523,13.13198"
         style="fill:none;stroke:#000000;stroke-width:0.61073369px;stroke-linecap:butt;stroke-linejoin:miter;stroke-opacity:1" />
      <path
         inkscape:connector-curvature="0"
         id="path8059-0"
         d="m 596.77894,882.53029 22.98097,-7.07107"
         style="fill:none;stroke:#000000;stroke-width:0.61073369px;stroke-linecap:butt;stroke-linejoin:miter;stroke-opacity:1" />
      <path
         inkscape:connector-curvature="0"
         id="path8061-4"
         d="M 616.72946,865.3577 596.5264,870.661"
         style="fill:none;stroke:#000000;stroke-width:0.61073369px;stroke-linecap:butt;stroke-linejoin:miter;stroke-opacity:1" />
      <path
         inkscape:connector-curvature="0"
         id="path8063-6"
         d="m 574.05051,852.22571 -4.54569,1.76777"
         style="fill:none;stroke:#000000;stroke-width:0.61073369px;stroke-linecap:butt;stroke-linejoin:miter;stroke-opacity:1" />
      <path
         inkscape:connector-curvature="0"
         id="path8065-5"
         d="m 552.07969,847.68003 16.41498,-5.05076"
         style="fill:none;stroke:#000000;stroke-width:0.61073369px;stroke-linecap:butt;stroke-linejoin:miter;stroke-opacity:1" />
      <path
         sodipodi:nodetypes="ccc"
         inkscape:connector-curvature="0"
         id="path8085-4"
         d="m 527.1154,984.2408 5.64512,-72.54236 -48.48732,-18.94035"
         style="fill:none;stroke:#000000;stroke-width:0.61073369px;stroke-linecap:butt;stroke-linejoin:miter;stroke-opacity:1" />
      <path
         inkscape:connector-curvature="0"
         d="m 514.32483,874.34671 c 0.16028,0.30815 0.26416,0.63171 0.31017,0.975 0.0272,0.13795 -0.0225,0.22836 -0.13001,0.30772 -0.0967,0.0453 -0.19746,0.0879 -0.30075,0.12088 -0.13606,0.0344 -0.27663,0.0369 -0.41609,0.0399 -0.11942,-0.0346 -0.25362,-0.11367 -0.36367,-0.1971 -0.025,-0.0126 -0.0499,-0.0251 -0.0749,-0.0376 0,0 -0.10078,0.0749 -0.10078,0.0749 l 0,0 c 0.0219,0.008 0.0438,0.0155 0.0657,0.0232 0.16888,0.13224 0.33304,0.23379 0.55664,0.23087 0.14479,-0.005 0.29083,-0.0109 0.43025,-0.0544 0.10786,-0.0372 0.21845,-0.0793 0.31441,-0.141 0.1172,-0.0997 0.17314,-0.21999 0.14407,-0.37656 -0.0471,-0.34957 -0.15045,-0.68019 -0.31339,-0.9943 0,0 -0.12165,0.0285 -0.12165,0.0285 z"
         id="path8087-4"
         style="fill:none;stroke:#000000;stroke-width:0.61073369;stroke-linecap:round;stroke-linejoin:round;stroke-miterlimit:4;stroke-opacity:1;stroke-dasharray:none;stroke-dashoffset:0" />
      <path
         inkscape:connector-curvature="0"
         d="m 514.11136,874.49039 c -0.35266,-0.11142 -0.70811,-0.21557 -1.06972,-0.29389 -0.20368,-0.0596 -0.39593,-0.0244 -0.59248,0.0328 -0.0985,0.0843 -0.232,0.10467 -0.33535,0.17629 -0.0868,0.0642 -0.17786,0.13076 -0.27522,0.17878 -0.11894,0.0406 -0.21018,0.10267 -0.28316,0.20473 -0.10065,0.0771 -0.13389,0.19675 -0.18812,0.3045 -0.0645,0.13758 -0.0931,0.28555 -0.15697,0.42317 -0.0649,0.13804 -0.0857,0.28669 -0.0977,0.43704 -0.009,0.1433 -0.008,0.28702 -0.008,0.43055 -0.0159,0.15995 0.0403,0.30891 0.0776,0.4616 0.0395,0.15639 0.0435,0.31841 0.0482,0.47877 0.004,0.16785 0.003,0.33575 0.002,0.50362 -4.1e-4,0.16138 -5.8e-4,0.32277 -6.2e-4,0.48415 0.004,0.1983 -0.0124,0.39731 0.0153,0.59404 0.049,0.2363 0.0795,0.47555 0.0969,0.71608 0.0139,0.20657 0.0143,0.4137 0.0149,0.62064 0.0345,0.20166 0.078,0.40119 0.10296,0.6045 0.0214,0.21192 0.0218,0.42513 0.0231,0.63788 0.0179,0.26351 -0.0129,0.51994 -0.057,0.77878 -0.0136,0.1985 0.0208,0.39577 0.0377,0.59304 0.029,0.18746 0.007,0.36208 -0.0383,0.54338 -0.0493,0.20608 -0.0575,0.4185 -0.0648,0.62935 -0.005,0.20697 -0.005,0.41403 -0.005,0.62106 1.5e-4,0.15432 4.7e-4,0.30864 6.6e-4,0.46296 2.1e-4,0.2 1.5e-4,0.40001 2e-4,0.60002 0.0168,0.16908 -0.01,0.32235 -0.0566,0.48286 -0.0478,0.14518 -0.0585,0.29837 -0.0656,0.44997 -0.0108,0.15207 -0.0512,0.31168 -0.11025,0.45272 -0.0762,0.1647 -0.10913,0.34335 -0.13204,0.522 -0.0161,0.15352 -0.0766,0.29805 -0.10696,0.44991 -0.009,0.15243 -0.0531,0.29446 -0.0904,0.44137 -0.0321,0.18334 -0.0965,0.35804 -0.14143,0.53831 -0.0826,0.17892 -0.11784,0.37117 -0.17131,0.55896 -0.0647,0.17594 -0.1004,0.35947 -0.1227,0.54498 -0.01,0.15537 -0.006,0.30528 -0.0496,0.45528 -0.0513,0.17565 -0.071,0.35725 -0.0817,0.53918 -0.009,0.20316 -0.009,0.40656 -0.009,0.60988 0.0186,0.21918 -0.0298,0.43047 -0.075,0.64299 -0.034,0.15612 -0.0437,0.31528 -0.0488,0.47447 -0.003,0.18216 -0.003,0.36437 -0.002,0.54655 3.8e-4,0.22836 6.2e-4,0.45672 7.3e-4,0.68508 5e-5,0.22656 6e-5,0.45311 -8e-5,0.67967 -1.4e-4,0.15133 -1.2e-4,0.30266 -6e-5,0.454 0.003,0.15894 0.01,0.31315 -0.0353,0.46661 -0.0555,0.17471 -0.0709,0.35806 -0.0828,0.53996 -0.009,0.14777 -0.009,0.29584 -0.009,0.44381 -0.0229,0.19823 -0.0206,0.39726 -0.0145,0.59731 0.009,0.25384 0.0123,0.5078 0.0143,0.76177 0.0215,0.22247 0.009,0.11065 0.0374,0.33544 0,0 0.12446,-0.009 0.12446,-0.009 l 0,0 c -0.0279,-0.2208 -0.0157,-0.11168 -0.0368,-0.32735 -0.002,-0.25449 -0.005,-0.50897 -0.0141,-0.76333 -0.006,-0.19938 -0.008,-0.39751 0.015,-0.59518 1.5e-4,-0.14649 3.9e-4,-0.29308 0.009,-0.43937 0.0116,-0.17708 0.0268,-0.35542 0.0815,-0.52535 0.0445,-0.1601 0.0404,-0.32044 0.0367,-0.48572 7e-5,-0.15133 9e-5,-0.30267 -4e-5,-0.454 -1.5e-4,-0.22656 -1.5e-4,-0.45313 -2.3e-4,-0.67969 -6e-5,-0.22839 -8e-5,-0.45677 -4.8e-4,-0.68515 -2e-4,-0.18141 -0.001,-0.36285 0.002,-0.54424 0.005,-0.15514 0.0145,-0.31023 0.0479,-0.46233 0.0457,-0.21717 0.0939,-0.43354 0.0757,-0.65732 1.3e-4,-0.20195 -2.8e-4,-0.404 0.009,-0.60579 0.0107,-0.17691 0.0299,-0.35351 0.0805,-0.52414 0.0434,-0.15381 0.0415,-0.30736 0.0507,-0.46619 0.0219,-0.18207 0.0584,-0.36157 0.12127,-0.53441 0.0525,-0.18886 0.0921,-0.38027 0.17172,-0.56088 0.0454,-0.17995 0.10888,-0.35488 0.14141,-0.53796 0.0382,-0.14776 0.0803,-0.29175 0.0909,-0.4449 0.0312,-0.15315 0.0929,-0.29919 0.1074,-0.45482 0.0222,-0.17304 0.0552,-0.34537 0.12956,-0.50465 0.0581,-0.1504 0.104,-0.31464 0.11294,-0.47561 0.007,-0.14622 0.0176,-0.29375 0.0642,-0.43365 0.0488,-0.16652 0.0737,-0.32766 0.0578,-0.50246 3e-5,-0.20002 -4e-5,-0.40004 -5e-5,-0.60007 -5e-5,-0.15431 -2.7e-4,-0.30863 -6.9e-4,-0.46294 -1.6e-4,-0.20623 -3.6e-4,-0.41248 0.005,-0.61865 0.007,-0.20602 0.0151,-0.41364 0.0639,-0.61489 0.0469,-0.18848 0.0678,-0.37165 0.0392,-0.5661 -0.0163,-0.19151 -0.0499,-0.38289 -0.0385,-0.57556 0.0447,-0.26273 0.075,-0.52343 0.0576,-0.79078 -10e-4,-0.21542 -0.002,-0.43129 -0.0232,-0.64587 -0.0245,-0.20061 -0.0653,-0.39791 -0.10269,-0.59632 -7.7e-4,-0.20852 -9.1e-4,-0.41724 -0.0152,-0.62538 -0.0174,-0.24217 -0.0476,-0.48318 -0.097,-0.72106 -0.029,-0.19308 -0.009,-0.38927 -0.0147,-0.58406 1.5e-4,-0.16136 3e-4,-0.32272 6.1e-4,-0.48408 2.8e-4,-0.16858 0.001,-0.33719 -0.002,-0.50573 -0.005,-0.16514 -0.009,-0.33201 -0.0492,-0.49313 -0.0355,-0.14772 -0.0924,-0.29065 -0.0765,-0.44532 -1.9e-4,-0.14165 -10e-4,-0.28348 0.008,-0.42491 0.0116,-0.14249 0.0316,-0.28294 0.0944,-0.41329 0.0618,-0.13761 0.0915,-0.28488 0.15656,-0.42131 0.0508,-0.10628 0.0907,-0.21379 0.18446,-0.29237 0.0701,-0.0903 0.16566,-0.1339 0.26929,-0.17777 0.0959,-0.0553 0.18874,-0.11714 0.27783,-0.18266 0.10549,-0.0577 0.22226,-0.0953 0.32421,-0.16114 0.14553,-0.0438 0.25256,-0.0727 0.40523,-0.029 0.36049,0.0733 0.71376,0.17822 1.06464,0.28785 0,0 0.0966,-0.0793 0.0966,-0.0793 z"
         id="path8089-4"
         style="fill:none;stroke:#000000;stroke-width:0.61073369;stroke-linecap:round;stroke-linejoin:round;stroke-miterlimit:4;stroke-opacity:1;stroke-dasharray:none;stroke-dashoffset:0" />
      <path
         inkscape:connector-curvature="0"
         d="m 506.68529,897.15273 c -7.5e-4,-0.44959 -3.8e-4,-0.89918 -1.7e-4,-1.34878 3.7e-4,-0.2709 2.7e-4,-0.5418 2.3e-4,-0.8127 -0.005,-0.27195 -0.007,-0.5406 0.0357,-0.80944 0.0395,-0.212 0.0681,-0.42532 0.0825,-0.64046 0.0478,-0.18112 0.0909,-0.36087 0.1123,-0.54733 0.045,-0.24266 0.14181,-0.46967 0.20159,-0.70863 0.0454,-0.18001 0.0648,-0.36466 0.0724,-0.54969 0.0472,-0.16831 0.0853,-0.33627 0.105,-0.51026 0.026,-0.18964 0.0653,-0.38373 0.12815,-0.56521 0.0693,-0.1715 0.11045,-0.34947 0.1322,-0.53262 0.0141,-0.13289 0.0154,-0.26667 0.0156,-0.40018 0.007,-0.14539 0.0654,-0.28244 0.09,-0.42678 0.0306,-0.20185 0.0796,-0.40428 0.1402,-0.59953 0.0719,-0.21326 0.11147,-0.43497 0.13302,-0.65844 -0.01,-0.15387 0.0542,-0.28905 0.091,-0.43413 0.0332,-0.14285 0.10255,-0.27246 0.13895,-0.41498 0.0318,-0.1578 0.0346,-0.31906 0.0371,-0.4794 0.001,-0.16109 5.8e-4,-0.32219 1.4e-4,-0.48328 -0.0149,-0.21842 0.0419,-0.43058 0.0751,-0.64483 0.0366,-0.21631 0.044,-0.43567 0.0488,-0.65451 0.0365,-0.23213 0.0795,-0.46289 0.10568,-0.69657 4.1e-4,-0.19912 0.0627,-0.38773 0.0986,-0.58175 0.0409,-0.24003 0.10554,-0.47418 0.13987,-0.71585 0.0245,-0.21887 0.0304,-0.43604 0.0724,-0.65252 0.0493,-0.20881 0.0695,-0.42262 0.0827,-0.63627 0.009,-0.18302 0.009,-0.3663 0.009,-0.54948 -3.4e-4,-0.23099 -6.8e-4,-0.46198 -8.7e-4,-0.69297 -10e-6,-0.19229 1e-5,-0.38458 -5e-5,-0.57687 0.017,-0.21185 -0.024,-0.41679 -0.0576,-0.62464 -0.0446,-0.25232 -0.0564,-0.50843 -0.0646,-0.764 -0.006,-0.23234 -0.005,-0.46479 -0.005,-0.69719 4.1e-4,-0.18377 6.3e-4,-0.36753 8.8e-4,-0.5513 3e-5,-0.15897 1.5e-4,-0.31794 1.4e-4,-0.47691 -1.3e-4,-0.16595 0,-0.3319 -2e-5,-0.49785 4e-5,-0.15924 -1e-5,-0.31849 -3e-5,-0.47773 10e-6,-0.15826 8e-5,-0.31651 0,-0.47477 0.0103,-0.20819 -0.0637,-0.4049 -0.11292,-0.6032 -0.0243,-0.10941 -0.0219,-0.22177 -0.019,-0.33306 0.0157,-0.0968 0.0703,-0.18435 0.096,-0.28144 0.0125,-0.12922 0.0735,-0.24326 0.111,-0.36601 0.047,-0.10889 0.14234,-0.1816 0.20717,-0.27752 0.0407,-0.0859 0.10424,-0.15062 0.17806,-0.20887 0.10651,-0.0995 0.23989,-0.15795 0.36231,-0.23462 0.0857,-0.0622 0.18566,-0.0898 0.28908,-0.10176 0.10551,-0.0179 0.19159,0.004 0.28919,0.0256 0,0 0.093,-0.0842 0.093,-0.0842 l 0,0 c -0.15447,-0.0393 -0.31303,-0.0516 -0.47132,-0.0303 -0.11035,0.0192 -0.21433,0.0593 -0.30653,0.12409 -0.12571,0.0772 -0.26049,0.1404 -0.36787,0.24406 -0.0722,0.0674 -0.14276,0.13283 -0.18462,0.22443 -0.0726,0.0986 -0.16963,0.17946 -0.21246,0.29842 -0.0387,0.12286 -0.0978,0.23887 -0.11147,0.36848 -0.0281,0.10134 -0.0893,0.19296 -0.0974,0.29789 -0.003,0.11743 -0.005,0.23593 0.0205,0.35141 0.047,0.19306 0.1225,0.38383 0.11179,0.58661 -8e-5,0.15826 -2e-5,0.31651 0,0.47477 -2e-5,0.15924 -7e-5,0.31849 -3e-5,0.47773 -10e-6,0.16595 1.2e-4,0.3319 -10e-6,0.49785 -3e-5,0.15895 8e-5,0.3179 -10e-5,0.47685 -7e-5,0.18377 -4.3e-4,0.36754 -5.2e-4,0.55131 -1.7e-4,0.23317 -9.8e-4,0.46638 0.005,0.69949 0.009,0.25845 0.0201,0.51752 0.0652,0.7727 0.0327,0.20438 0.0738,0.40538 0.0568,0.61369 -4e-5,0.19231 4e-5,0.38461 3e-4,0.57692 1.6e-4,0.23097 4.5e-4,0.46194 6.3e-4,0.6929 -1e-4,0.18177 3.1e-4,0.36366 -0.008,0.54527 -0.0128,0.21073 -0.0333,0.42143 -0.0819,0.62739 -0.0419,0.21762 -0.0483,0.43593 -0.0726,0.65589 -0.0345,0.2406 -0.0995,0.47372 -0.13978,0.7129 -0.0367,0.19547 -0.0986,0.38602 -0.0991,0.58675 -0.0265,0.23572 -0.0709,0.4683 -0.10582,0.70276 -0.005,0.2158 -0.0122,0.43208 -0.0482,0.6454 -0.034,0.21772 -0.0908,0.43357 -0.0759,0.6556 3.2e-4,0.16067 10e-4,0.32135 -1.4e-4,0.48201 -0.003,0.15485 -0.005,0.31071 -0.036,0.46303 -0.0375,0.14196 -0.10794,0.27161 -0.13893,0.41513 -0.0386,0.14793 -0.10107,0.28785 -0.0918,0.44481 -0.0213,0.21892 -0.0606,0.43592 -0.13147,0.64473 -0.0599,0.19862 -0.11109,0.40306 -0.14148,0.60809 -0.0259,0.14777 -0.0875,0.28837 -0.0908,0.43843 -3.7e-4,0.13081 -10e-4,0.2619 -0.0152,0.39212 -0.0215,0.17844 -0.0631,0.35127 -0.13034,0.51845 -0.0619,0.1871 -0.10471,0.38476 -0.12988,0.57977 -0.0202,0.17566 -0.0627,0.34415 -0.10545,0.51522 -0.008,0.18033 -0.0263,0.36026 -0.0708,0.53564 -0.0611,0.24156 -0.15997,0.47139 -0.2027,0.71761 -0.0219,0.18754 -0.0686,0.36753 -0.11259,0.55064 -0.0143,0.21304 -0.0428,0.42425 -0.0818,0.63422 -0.0432,0.27249 -0.0409,0.54476 -0.0362,0.8203 -5e-5,0.2709 -1.4e-4,0.5418 2.3e-4,0.8127 2.1e-4,0.4496 5.8e-4,0.89919 -1.7e-4,1.34878 0,0 0.12492,0 0.12492,0 z"
         id="path8091-1"
         style="fill:none;stroke:#000000;stroke-width:0.61073369;stroke-linecap:round;stroke-linejoin:round;stroke-miterlimit:4;stroke-opacity:1;stroke-dasharray:none;stroke-dashoffset:0" />
      <path
         inkscape:connector-curvature="0"
         d="m 509.59479,872.03223 c 0.33485,0.18649 0.65781,0.39451 0.93266,0.66283 0.11568,0.10545 0.18018,0.23165 0.20261,0.3841 0.008,0.10987 0.002,0.22046 1.9e-4,0.33052 10e-4,0.11097 -0.0516,0.21595 -0.0934,0.31724 -0.0329,0.046 -0.0998,0.0827 -0.15426,0.11596 -0.0928,0.0248 -0.17562,0.0485 -0.25639,0.10059 -0.15203,0.0572 -0.10871,0.0561 -0.22343,0.0219 -0.12333,-0.0295 -0.23217,-0.0849 -0.3432,-0.14453 -0.16113,-0.10217 -0.29576,-0.23962 -0.42917,-0.37462 -0.0586,-0.0603 -0.0312,-0.0319 -0.0824,-0.0853 0,0 -0.11485,0.0514 -0.11485,0.0514 l 0,0 c 0.0516,0.0538 0.024,0.0251 0.083,0.086 0.13776,0.14003 0.27666,0.28167 0.43956,0.39282 0.11518,0.0605 0.22212,0.12742 0.35058,0.155 0.1463,0.0478 0.29089,0.0464 0.42631,-0.0356 0.0813,-0.0465 0.17484,-0.0563 0.2571,-0.10171 0.0625,-0.0413 0.14011,-0.0845 0.17015,-0.15532 0.0444,-0.1095 0.0979,-0.22259 0.0961,-0.3426 0.002,-0.11385 0.008,-0.22823 -5e-4,-0.34185 -0.0241,-0.16661 -0.0888,-0.31028 -0.21475,-0.42692 -0.276,-0.2738 -0.59978,-0.48872 -0.93982,-0.67605 0,0 -0.10612,0.0661 -0.10612,0.0661 z"
         id="path8093-3"
         style="fill:none;stroke:#000000;stroke-width:0.61073369;stroke-linecap:round;stroke-linejoin:round;stroke-miterlimit:4;stroke-opacity:1;stroke-dasharray:none;stroke-dashoffset:0" />
      <path
         inkscape:connector-curvature="0"
         d="m 512.98359,875.82456 c -0.0496,-0.34196 -0.0592,-0.68612 -0.0207,-1.02943 0,0 -0.12521,-0.007 -0.12521,-0.007 l 0,0 c -0.0368,0.34843 -0.0285,0.69747 0.0211,1.04451 0,0 0.12482,-0.008 0.12482,-0.008 z"
         id="path8095-6"
         style="fill:none;stroke:#000000;stroke-width:0.61073369;stroke-linecap:round;stroke-linejoin:round;stroke-miterlimit:4;stroke-opacity:1;stroke-dasharray:none;stroke-dashoffset:0" />
      <path
         inkscape:connector-curvature="0"
         d="m 513.09655,897.93728 c -0.0771,0.36142 -0.14494,0.72468 -0.19424,1.09096 -0.0204,0.162 -0.0288,0.32508 -0.0306,0.48824 -3.1e-4,0.10812 6.4e-4,0.21623 10e-4,0.32434 3.5e-4,0.08 4.8e-4,0.15993 5.1e-4,0.2399 1.4e-4,0.01 -10e-5,0.0198 -1.6e-4,0.0297 0,0 0.12627,-1.8e-4 0.12627,-1.8e-4 l 0,0 c -7e-5,-0.01 -3.5e-4,-0.0197 -2.1e-4,-0.0295 -5e-5,-0.0801 -6e-5,-0.16013 -5.6e-4,-0.2402 -6.2e-4,-0.10775 -10e-4,-0.2155 -10e-4,-0.32325 0.002,-0.16035 0.009,-0.32063 0.0296,-0.47985 0.0485,-0.36441 0.11558,-0.72586 0.1936,-1.0851 0,0 -0.12413,-0.015 -0.12413,-0.015 z"
         id="path8099-9"
         style="fill:none;stroke:#000000;stroke-width:0.61073369;stroke-linecap:round;stroke-linejoin:round;stroke-miterlimit:4;stroke-opacity:1;stroke-dasharray:none;stroke-dashoffset:0" />
      <path
         inkscape:connector-curvature="0"
         d="m 505.37957,895.15586 c -0.12378,0.3526 -0.21974,0.714 -0.29153,1.08053 -0.0354,0.1843 -0.0435,0.37146 -0.0457,0.55857 0.008,0.17161 0.064,0.33817 0.0935,0.50794 0.004,0.0301 0.008,0.0602 0.012,0.0903 0,0 0.12512,-0.009 0.12512,-0.009 l 0,0 c -0.004,-0.031 -0.008,-0.062 -0.0123,-0.093 -0.0287,-0.16572 -0.0824,-0.32851 -0.0929,-0.4953 0.002,-0.18294 0.01,-0.36594 0.0445,-0.54614 0.0709,-0.36374 0.16638,-0.72227 0.29022,-1.07176 0,0 -0.12305,-0.022 -0.12305,-0.022 z"
         id="path8101-2"
         style="fill:none;stroke:#000000;stroke-width:0.61073369;stroke-linecap:round;stroke-linejoin:round;stroke-miterlimit:4;stroke-opacity:1;stroke-dasharray:none;stroke-dashoffset:0" />
      <path
         inkscape:connector-curvature="0"
         d="m 513.33983,900.23581 c -0.46963,-0.19403 -0.92599,-0.4174 -1.39031,-0.62335 -0.25753,-0.12614 -0.54191,-0.16117 -0.81482,-0.23709 -0.26149,-0.0448 -0.51535,-0.11166 -0.76616,-0.19754 -0.21518,-0.0745 -0.42999,-0.1545 -0.64062,-0.24164 -0.17013,-0.0864 -0.34921,-0.15256 -0.52225,-0.23198 -0.17668,-0.0787 -0.35755,-0.14807 -0.53759,-0.21908 -0.17632,-0.0627 -0.36328,-0.073 -0.54373,-0.11995 -0.21594,-0.035 -0.41729,-0.10371 -0.61579,-0.19321 -0.16529,-0.0918 -0.35174,-0.11491 -0.53211,-0.1583 -0.18451,-0.0439 -0.36269,-0.11138 -0.53356,-0.19318 -0.16403,-0.10525 -0.32903,-0.20917 -0.49203,-0.31619 -0.13027,-0.064 -0.25493,-0.14006 -0.39204,-0.18856 -0.14856,-0.0305 -0.27593,-0.10547 -0.39797,-0.19183 -0.12335,-0.0659 -0.25162,-0.12466 -0.37948,-0.18234 -0.0319,-0.0143 -0.0641,-0.0282 -0.0963,-0.042 0,0 -0.10074,0.0758 -0.10074,0.0758 l 0,0 c 0.032,0.0132 0.0639,0.0266 0.0956,0.0406 0.12523,0.0553 0.24679,0.11691 0.3719,0.17056 0.12514,0.0911 0.25531,0.17977 0.4103,0.20943 0.13604,0.0391 0.25129,0.11866 0.38127,0.17336 0.16515,0.10856 0.33351,0.21157 0.49664,0.32303 0.17174,0.0886 0.35491,0.15702 0.54221,0.20423 0.17497,0.0501 0.36288,0.0569 0.52511,0.14932 0.20134,0.0906 0.40147,0.17318 0.62278,0.20212 0.17883,0.0482 0.36021,0.0654 0.53869,0.11395 0.17925,0.0695 0.3575,0.14085 0.53464,0.21492 0.17103,0.0851 0.35503,0.14316 0.52387,0.23425 0.20926,0.0932 0.42977,0.16601 0.64409,0.24553 0.25156,0.0866 0.50403,0.16383 0.76846,0.20069 0.2703,0.0768 0.55209,0.10893 0.80947,0.2289 0.46557,0.20477 0.92237,0.42856 1.3914,0.62557 0,0 0.099,-0.076 0.099,-0.076 z"
         id="path8103-8"
         style="fill:none;stroke:#000000;stroke-width:0.61073369;stroke-linecap:round;stroke-linejoin:round;stroke-miterlimit:4;stroke-opacity:1;stroke-dasharray:none;stroke-dashoffset:0" />
      <path
         sodipodi:nodetypes="cccc"
         inkscape:connector-curvature="0"
         id="path8105-6"
         d="m 530.27847,987.97394 7.40655,-78.54834 -55.55839,-20.96066 0.12627,3.28299"
         style="fill:none;stroke:#000000;stroke-width:0.61073369px;stroke-linecap:butt;stroke-linejoin:miter;stroke-opacity:1" />
      <path
         inkscape:connector-curvature="0"
         d="m 620.00743,875.59007 c 0.16745,-0.35674 0.39038,-0.68312 0.56689,-1.03479 0.0898,-0.1692 0.20214,-0.32606 0.29267,-0.4944 0.082,-0.12367 0.14293,-0.25752 0.19304,-0.39671 0.0852,-0.14382 0.1518,-0.29506 0.20553,-0.45328 0.0627,-0.17274 0.10922,-0.35381 0.17698,-0.52476 0.0766,-0.17455 0.11126,-0.36196 0.13441,-0.54993 5e-4,-0.18523 0.0539,-0.36239 0.0906,-0.54244 0.0369,-0.20682 0.0428,-0.41741 0.0477,-0.62693 0.003,-0.15809 0.002,-0.31621 0.002,-0.47432 -0.003,-0.19552 0.009,-0.39104 -0.0161,-0.58521 -0.034,-0.21408 -0.0926,-0.42111 -0.1548,-0.62827 -0.0349,-0.1919 -0.11057,-0.3716 -0.1557,-0.56085 -0.0525,-0.21217 -0.15758,-0.40359 -0.23305,-0.60751 -0.032,-0.16274 -0.0897,-0.30294 -0.18787,-0.43549 -0.10689,-0.11076 -0.23357,-0.2 -0.35074,-0.29954 -0.12853,-0.12793 -0.24134,-0.26647 -0.37564,-0.38985 -0.14707,-0.12887 -0.31045,-0.23501 -0.46074,-0.36024 -0.13292,-0.12207 -0.29347,-0.20125 -0.45037,-0.28697 -0.16277,-0.0998 -0.33172,-0.18846 -0.4963,-0.28518 -0.15487,-0.12127 -0.34495,-0.17034 -0.5251,-0.24009 -0.14698,-0.0563 -0.27481,-0.14775 -0.42279,-0.20195 -0.14098,-0.0456 -0.29058,-0.0468 -0.43727,-0.0497 -0.18786,0.0126 -0.36867,-0.0398 -0.55194,-0.0719 -0.12035,-0.0251 -0.23661,-0.0619 -0.35223,-0.10295 0,0 -0.0981,0.0777 -0.0981,0.0777 l 0,0 c 0.11827,0.045 0.23737,0.0827 0.3605,0.11261 0.18646,0.0305 0.36908,0.0906 0.55942,0.0793 0.141,10e-4 0.28505,-8.1e-4 0.42248,0.0347 0.15153,0.0448 0.27503,0.14086 0.42079,0.19897 0.17653,0.0696 0.36709,0.11137 0.51857,0.23121 0.16522,0.0975 0.33528,0.18557 0.4979,0.28736 0.15456,0.0817 0.31194,0.1581 0.44342,0.27544 0.15096,0.12253 0.30802,0.23497 0.45921,0.35691 0.13558,0.1238 0.25185,0.2589 0.37652,0.39214 0.11331,0.097 0.23245,0.18673 0.34437,0.28514 0.0945,0.12798 0.15598,0.25644 0.18282,0.41663 0.0742,0.20171 0.1777,0.39036 0.23175,0.59923 0.0447,0.19101 0.12144,0.3715 0.15633,0.56498 0.0614,0.20363 0.11961,0.40683 0.15362,0.61725 0.026,0.19101 0.0117,0.38385 0.0154,0.57629 3.7e-4,0.15751 9.1e-4,0.31505 -0.002,0.47254 -0.005,0.20544 -0.0103,0.41196 -0.047,0.61467 -0.0374,0.18171 -0.09,0.36097 -0.0912,0.54789 -0.0225,0.18251 -0.0572,0.36389 -0.13203,0.53316 -0.0651,0.17327 -0.11616,0.35288 -0.17746,0.5274 -0.0542,0.15786 -0.12545,0.30583 -0.20574,0.45198 -0.0494,0.13581 -0.11135,0.26506 -0.19031,0.38644 -0.0935,0.16766 -0.20263,0.32685 -0.29271,0.4968 -0.17821,0.35196 -0.39982,0.68035 -0.56767,1.03805 0,0 0.12166,0.0285 0.12166,0.0285 z"
         id="path8109-4"
         style="fill:none;stroke:#000000;stroke-width:0.61073369;stroke-linecap:round;stroke-linejoin:round;stroke-miterlimit:4;stroke-opacity:1;stroke-dasharray:none;stroke-dashoffset:0" />
      <path
         inkscape:connector-curvature="0"
         d="m 573.34197,852.03932 c 0.32061,-0.24298 0.65946,-0.45928 0.99033,-0.68703 0.16244,-0.11229 0.30285,-0.25157 0.44146,-0.39117 0.13283,-0.10344 0.2452,-0.22889 0.37733,-0.33308 0.14169,-0.1074 0.26538,-0.23421 0.39926,-0.35132 0.14051,-0.11547 0.25566,-0.25513 0.36655,-0.39829 0.0978,-0.11816 0.19202,-0.23461 0.28834,-0.35361 0.10408,-0.1504 0.14311,-0.33351 0.20218,-0.50458 0.0514,-0.17977 0.10088,-0.35903 0.15502,-0.53828 0.0492,-0.16311 0.0785,-0.33368 0.058,-0.50326 -0.0268,-0.17683 -0.0936,-0.33991 -0.15109,-0.50768 -0.0437,-0.16742 -0.10602,-0.32884 -0.17251,-0.48859 -0.0922,-0.18213 -0.18341,-0.36453 -0.27819,-0.5455 -0.0923,-0.16677 -0.19617,-0.32589 -0.29413,-0.48921 -0.12668,-0.18609 -0.26112,-0.36702 -0.38555,-0.55473 -0.16565,-0.20763 -0.32944,-0.41702 -0.49754,-0.62288 -0.14397,-0.18924 -0.30202,-0.36406 -0.47153,-0.53068 -0.16156,-0.15496 -0.29931,-0.33191 -0.46174,-0.48608 -0.12928,-0.1275 -0.27765,-0.23215 -0.41025,-0.35562 -0.1303,-0.10843 -0.25767,-0.22029 -0.4007,-0.31202 -0.20129,-0.0783 -0.37912,-0.19833 -0.56092,-0.31211 -0.18376,-0.0997 -0.38518,-0.15858 -0.58041,-0.23202 -0.16575,-0.0442 -0.33111,-0.0829 -0.49497,-0.13428 -0.16361,-0.0454 -0.33306,-0.0646 -0.50214,-0.0742 -0.16248,-0.007 -0.32518,-0.006 -0.48776,-0.005 -0.18479,5.9e-4 -0.36958,7.2e-4 -0.55436,8.7e-4 -0.15804,-0.0216 -0.29523,0.0346 -0.44082,0.0841 -0.1141,0.032 -0.23231,0.0374 -0.34998,0.0414 -0.17455,0.0637 -0.35739,0.0895 -0.54129,0.10736 -0.0339,0.003 -0.0678,0.005 -0.10178,0.008 0,0 0.0857,0.0915 0.0857,0.0915 l 0,0 c 0.0343,-0.003 0.0685,-0.006 0.10277,-0.009 0.18281,-0.0205 0.36107,-0.0563 0.53848,-0.10411 0.12285,-0.006 0.24603,-0.0167 0.36359,-0.0557 0.14019,-0.0476 0.27385,-0.0863 0.42482,-0.0682 0.18486,-1.1e-4 0.36972,-4e-4 0.55458,-7.5e-4 0.0878,-1.3e-4 0.19893,-0.001 0.32204,0.003 0.16472,0.006 0.32971,0.0225 0.49019,0.0617 0.1637,0.049 0.32442,0.0993 0.49262,0.13134 0.19293,0.069 0.38726,0.13371 0.57258,0.22054 0.18273,0.11139 0.35559,0.24301 0.56081,0.3124 0.14331,0.0839 0.26431,0.19743 0.39384,0.29966 0.13145,0.12531 0.27989,0.22901 0.41041,0.35579 0.16442,0.1518 0.30082,0.32891 0.46122,0.48459 0.16842,0.1645 0.32739,0.33517 0.46868,0.52368 0.16719,0.20378 0.3278,0.41269 0.49515,0.61614 0.12263,0.18771 0.25635,0.36801 0.38418,0.55205 0.0969,0.16262 0.20072,0.31996 0.29322,0.48531 0.0934,0.1797 0.18404,0.36012 0.2768,0.54 0.0673,0.15775 0.12794,0.31805 0.17149,0.48379 0.0552,0.16391 0.12272,0.32162 0.14932,0.4941 0.0222,0.15935 -0.0117,0.32085 -0.0566,0.47414 -0.0543,0.17822 -0.102,0.35716 -0.15452,0.53563 -0.057,0.16374 -0.0933,0.34012 -0.19612,0.48239 -0.0933,0.1214 -0.19503,0.23247 -0.28832,0.35408 -0.10891,0.13936 -0.22386,0.27396 -0.36133,0.3863 -0.13275,0.11678 -0.25652,0.24302 -0.3982,0.34906 -0.13028,0.10955 -0.24937,0.23083 -0.38039,0.3395 -0.13629,0.13624 -0.27492,0.27132 -0.43501,0.37994 -0.33358,0.22576 -0.66821,0.4493 -0.99181,0.6897 0,0 0.10902,0.061 0.10902,0.061 z"
         id="path8115-9"
         style="fill:none;stroke:#000000;stroke-width:0.61073369;stroke-linecap:round;stroke-linejoin:round;stroke-miterlimit:4;stroke-opacity:1;stroke-dasharray:none;stroke-dashoffset:0" />
      <path
         style="fill:none;stroke:#000000;stroke-width:0.61073369px;stroke-linecap:butt;stroke-linejoin:miter;stroke-opacity:1"
         d="m 479.09968,885.03626 -0.44194,5.99778"
         id="path8834-8"
         inkscape:connector-curvature="0" />
      <path
         inkscape:connector-curvature="0"
         id="path9045"
         d="m 454.46429,980.57647 10.35714,-4.28572"
         style="fill:none;stroke:#000000;stroke-width:0.61073369px;stroke-linecap:butt;stroke-linejoin:miter;stroke-opacity:1" />
      <path
         sodipodi:nodetypes="cc"
         inkscape:connector-curvature="0"
         id="path9047"
         d="m 478.92857,890.3979 -7.14285,78.92857"
         style="fill:none;stroke:#000000;stroke-width:0.61073369px;stroke-linecap:butt;stroke-linejoin:miter;stroke-opacity:1" />
      <path
         inkscape:connector-curvature="0"
         id="path9049"
         d="M 532.14286,991.29075 471.78572,969.1479"
         style="fill:none;stroke:#000000;stroke-width:0.61073369px;stroke-linecap:butt;stroke-linejoin:miter;stroke-opacity:1" />
      <path
         sodipodi:nodetypes="ccc"
         inkscape:connector-curvature="0"
         id="path9053"
         d="m 482.14286,888.43361 -7.5,78.21429 55.71428,21.33928"
         style="fill:none;stroke:#000000;stroke-width:0.61073369px;stroke-linecap:butt;stroke-linejoin:miter;stroke-opacity:1" />
      <path
         inkscape:connector-curvature="0"
         id="path9055"
         d="m 484.10714,892.80861 -7.23214,72.14286 49.91072,19.01786"
         style="fill:none;stroke:#000000;stroke-width:0.61073369px;stroke-linecap:butt;stroke-linejoin:miter;stroke-opacity:1" />
      <path
         inkscape:connector-curvature="0"
         id="path9057"
         d="m 484.36815,895.66227 47.7297,18.30901"
         style="fill:none;stroke:#000000;stroke-width:0.18322012;stroke-linecap:butt;stroke-linejoin:miter;stroke-miterlimit:4;stroke-opacity:1;stroke-dasharray:none" />
      <path
         inkscape:connector-curvature="0"
         id="path9057-6"
         d="m 483.98934,898.50332 47.7297,18.30901"
         style="fill:none;stroke:#000000;stroke-width:0.18322012;stroke-linecap:butt;stroke-linejoin:miter;stroke-miterlimit:4;stroke-opacity:1;stroke-dasharray:none" />
      <path
         inkscape:connector-curvature="0"
         id="path9057-1"
         d="m 483.358,901.40751 47.7297,18.30901"
         style="fill:none;stroke:#000000;stroke-width:0.18322012;stroke-linecap:butt;stroke-linejoin:miter;stroke-miterlimit:4;stroke-opacity:1;stroke-dasharray:none" />
      <path
         inkscape:connector-curvature="0"
         id="path9057-7"
         d="m 483.10546,904.43797 47.7297,18.30901"
         style="fill:none;stroke:#000000;stroke-width:0.18322012;stroke-linecap:butt;stroke-linejoin:miter;stroke-miterlimit:4;stroke-opacity:1;stroke-dasharray:none" />
      <path
         inkscape:connector-curvature="0"
         id="path9057-6-3"
         d="m 483.1686,907.23196 47.7297,18.30901"
         style="fill:none;stroke:#000000;stroke-width:0.18322012;stroke-linecap:butt;stroke-linejoin:miter;stroke-miterlimit:4;stroke-opacity:1;stroke-dasharray:none" />
      <path
         inkscape:connector-curvature="0"
         id="path9057-1-1"
         d="m 482.53726,910.13615 47.7297,18.30901"
         style="fill:none;stroke:#000000;stroke-width:0.18322012;stroke-linecap:butt;stroke-linejoin:miter;stroke-miterlimit:4;stroke-opacity:1;stroke-dasharray:none" />
      <path
         inkscape:connector-curvature="0"
         id="path9057-7-2"
         d="m 482.28472,913.16661 47.7297,18.30901"
         style="fill:none;stroke:#000000;stroke-width:0.18322012;stroke-linecap:butt;stroke-linejoin:miter;stroke-miterlimit:4;stroke-opacity:1;stroke-dasharray:none" />
      <path
         inkscape:connector-curvature="0"
         id="path9057-7-6"
         d="m 482.47411,915.98356 47.7297,18.30901"
         style="fill:none;stroke:#000000;stroke-width:0.18322012;stroke-linecap:butt;stroke-linejoin:miter;stroke-miterlimit:4;stroke-opacity:1;stroke-dasharray:none" />
      <path
         inkscape:connector-curvature="0"
         id="path9057-6-3-1"
         d="m 482.53725,918.77755 47.7297,18.30901"
         style="fill:none;stroke:#000000;stroke-width:0.18322012;stroke-linecap:butt;stroke-linejoin:miter;stroke-miterlimit:4;stroke-opacity:1;stroke-dasharray:none" />
      <path
         inkscape:connector-curvature="0"
         id="path9057-1-1-1"
         d="m 481.90591,921.68174 47.7297,18.30901"
         style="fill:none;stroke:#000000;stroke-width:0.18322012;stroke-linecap:butt;stroke-linejoin:miter;stroke-miterlimit:4;stroke-opacity:1;stroke-dasharray:none" />
      <path
         inkscape:connector-curvature="0"
         id="path9057-7-2-7"
         d="m 481.65337,924.7122 47.7297,18.30901"
         style="fill:none;stroke:#000000;stroke-width:0.18322012;stroke-linecap:butt;stroke-linejoin:miter;stroke-miterlimit:4;stroke-opacity:1;stroke-dasharray:none" />
      <path
         inkscape:connector-curvature="0"
         id="path9057-6-3-0"
         d="m 481.33769,927.77019 47.7297,18.30901"
         style="fill:none;stroke:#000000;stroke-width:0.18322012;stroke-linecap:butt;stroke-linejoin:miter;stroke-miterlimit:4;stroke-opacity:1;stroke-dasharray:none" />
      <path
         inkscape:connector-curvature="0"
         id="path9057-1-1-10"
         d="m 480.70635,930.67438 47.7297,18.30901"
         style="fill:none;stroke:#000000;stroke-width:0.18322012;stroke-linecap:butt;stroke-linejoin:miter;stroke-miterlimit:4;stroke-opacity:1;stroke-dasharray:none" />
      <path
         inkscape:connector-curvature="0"
         id="path9057-7-2-6"
         d="m 480.45381,933.70484 47.7297,18.30901"
         style="fill:none;stroke:#000000;stroke-width:0.18322012;stroke-linecap:butt;stroke-linejoin:miter;stroke-miterlimit:4;stroke-opacity:1;stroke-dasharray:none" />
      <path
         inkscape:connector-curvature="0"
         id="path9057-7-6-9"
         d="m 480.6432,936.52179 47.7297,18.30901"
         style="fill:none;stroke:#000000;stroke-width:0.18322012;stroke-linecap:butt;stroke-linejoin:miter;stroke-miterlimit:4;stroke-opacity:1;stroke-dasharray:none" />
      <path
         inkscape:connector-curvature="0"
         id="path9057-6-3-1-5"
         d="m 480.70634,939.31578 47.7297,18.30901"
         style="fill:none;stroke:#000000;stroke-width:0.18322012;stroke-linecap:butt;stroke-linejoin:miter;stroke-miterlimit:4;stroke-opacity:1;stroke-dasharray:none" />
      <path
         inkscape:connector-curvature="0"
         id="path9057-1-1-1-0"
         d="m 480.075,942.21997 47.7297,18.30901"
         style="fill:none;stroke:#000000;stroke-width:0.18322012;stroke-linecap:butt;stroke-linejoin:miter;stroke-miterlimit:4;stroke-opacity:1;stroke-dasharray:none" />
      <path
         inkscape:connector-curvature="0"
         id="path9057-7-2-7-3"
         d="m 479.82246,945.25043 47.7297,18.30901"
         style="fill:none;stroke:#000000;stroke-width:0.18322012;stroke-linecap:butt;stroke-linejoin:miter;stroke-miterlimit:4;stroke-opacity:1;stroke-dasharray:none" />
      <path
         inkscape:connector-curvature="0"
         id="path9057-1-1-10-2"
         d="m 479.00172,947.91011 47.7297,18.30901"
         style="fill:none;stroke:#000000;stroke-width:0.18322012;stroke-linecap:butt;stroke-linejoin:miter;stroke-miterlimit:4;stroke-opacity:1;stroke-dasharray:none" />
      <path
         inkscape:connector-curvature="0"
         id="path9057-7-2-6-5"
         d="m 478.74918,950.94057 47.7297,18.30901"
         style="fill:none;stroke:#000000;stroke-width:0.18322012;stroke-linecap:butt;stroke-linejoin:miter;stroke-miterlimit:4;stroke-opacity:1;stroke-dasharray:none" />
      <path
         inkscape:connector-curvature="0"
         id="path9057-7-6-9-0"
         d="m 478.93857,953.75752 47.7297,18.30901"
         style="fill:none;stroke:#000000;stroke-width:0.18322012;stroke-linecap:butt;stroke-linejoin:miter;stroke-miterlimit:4;stroke-opacity:1;stroke-dasharray:none" />
      <path
         inkscape:connector-curvature="0"
         id="path9057-6-3-1-5-5"
         d="m 479.00171,956.55151 47.7297,18.30901"
         style="fill:none;stroke:#000000;stroke-width:0.18322012;stroke-linecap:butt;stroke-linejoin:miter;stroke-miterlimit:4;stroke-opacity:1;stroke-dasharray:none" />
      <path
         inkscape:connector-curvature="0"
         id="path9057-1-1-1-0-2"
         d="m 478.37037,959.4557 47.7297,18.30901"
         style="fill:none;stroke:#000000;stroke-width:0.18322012;stroke-linecap:butt;stroke-linejoin:miter;stroke-miterlimit:4;stroke-opacity:1;stroke-dasharray:none" />
      <path
         inkscape:connector-curvature="0"
         id="path9057-7-2-7-3-6"
         d="m 478.11783,962.48616 47.7297,18.30901"
         style="fill:none;stroke:#000000;stroke-width:0.18322012;stroke-linecap:butt;stroke-linejoin:miter;stroke-miterlimit:4;stroke-opacity:1;stroke-dasharray:none" />
      <path
         inkscape:connector-curvature="0"
         id="path9260"
         d="m 480,965.48718 6.60714,-71.60714"
         style="fill:none;stroke:#000000;stroke-width:0.12214674;stroke-linecap:butt;stroke-linejoin:miter;stroke-miterlimit:4;stroke-opacity:1;stroke-dasharray:none" />
      <path
         inkscape:connector-curvature="0"
         id="path9260-0"
         d="m 482.23215,966.46932 6.60714,-71.60714"
         style="fill:none;stroke:#000000;stroke-width:0.12214674;stroke-linecap:butt;stroke-linejoin:miter;stroke-miterlimit:4;stroke-opacity:1;stroke-dasharray:none" />
      <path
         inkscape:connector-curvature="0"
         id="path9260-0-6"
         d="m 484.46429,967.54076 6.60714,-71.60714"
         style="fill:none;stroke:#000000;stroke-width:0.12214674;stroke-linecap:butt;stroke-linejoin:miter;stroke-miterlimit:4;stroke-opacity:1;stroke-dasharray:none" />
      <path
         inkscape:connector-curvature="0"
         id="path9260-0-6-1"
         d="m 486.60715,968.52289 6.60714,-71.60714"
         style="fill:none;stroke:#000000;stroke-width:0.12214674;stroke-linecap:butt;stroke-linejoin:miter;stroke-miterlimit:4;stroke-opacity:1;stroke-dasharray:none" />
      <path
         inkscape:connector-curvature="0"
         id="path9260-0-6-6"
         d="m 489.1458,969.22029 6.60714,-71.60714"
         style="fill:none;stroke:#000000;stroke-width:0.12214674;stroke-linecap:butt;stroke-linejoin:miter;stroke-miterlimit:4;stroke-opacity:1;stroke-dasharray:none" />
      <path
         inkscape:connector-curvature="0"
         id="path9260-0-6-9"
         d="m 491.67118,969.9779 6.60714,-71.60714"
         style="fill:none;stroke:#000000;stroke-width:0.12214674;stroke-linecap:butt;stroke-linejoin:miter;stroke-miterlimit:4;stroke-opacity:1;stroke-dasharray:none" />
      <path
         inkscape:connector-curvature="0"
         id="path9260-2"
         d="m 494.00116,970.85726 6.60714,-71.60714"
         style="fill:none;stroke:#000000;stroke-width:0.12214674;stroke-linecap:butt;stroke-linejoin:miter;stroke-miterlimit:4;stroke-opacity:1;stroke-dasharray:none" />
      <path
         inkscape:connector-curvature="0"
         id="path9260-0-69"
         d="m 496.23331,971.8394 6.60714,-71.60714"
         style="fill:none;stroke:#000000;stroke-width:0.12214674;stroke-linecap:butt;stroke-linejoin:miter;stroke-miterlimit:4;stroke-opacity:1;stroke-dasharray:none" />
      <path
         inkscape:connector-curvature="0"
         id="path9260-0-6-68"
         d="m 498.46545,972.91084 6.60714,-71.60714"
         style="fill:none;stroke:#000000;stroke-width:0.12214674;stroke-linecap:butt;stroke-linejoin:miter;stroke-miterlimit:4;stroke-opacity:1;stroke-dasharray:none" />
      <path
         inkscape:connector-curvature="0"
         id="path9260-0-6-1-5"
         d="m 500.60831,973.89297 6.60714,-71.60714"
         style="fill:none;stroke:#000000;stroke-width:0.12214674;stroke-linecap:butt;stroke-linejoin:miter;stroke-miterlimit:4;stroke-opacity:1;stroke-dasharray:none" />
      <path
         inkscape:connector-curvature="0"
         id="path9260-0-6-6-5"
         d="m 503.14696,974.59037 6.60714,-71.60714"
         style="fill:none;stroke:#000000;stroke-width:0.12214674;stroke-linecap:butt;stroke-linejoin:miter;stroke-miterlimit:4;stroke-opacity:1;stroke-dasharray:none" />
      <path
         inkscape:connector-curvature="0"
         id="path9260-0-6-9-5"
         d="m 505.67234,975.34798 6.60714,-71.60714"
         style="fill:none;stroke:#000000;stroke-width:0.12214674;stroke-linecap:butt;stroke-linejoin:miter;stroke-miterlimit:4;stroke-opacity:1;stroke-dasharray:none" />
      <path
         inkscape:connector-curvature="0"
         id="path9260-5"
         d="m 508.05895,976.69763 6.60714,-71.60713"
         style="fill:none;stroke:#000000;stroke-width:0.12214674;stroke-linecap:butt;stroke-linejoin:miter;stroke-miterlimit:4;stroke-opacity:1;stroke-dasharray:none" />
      <path
         inkscape:connector-curvature="0"
         id="path9260-0-9"
         d="m 510.2911,977.67983 6.60714,-71.60719"
         style="fill:none;stroke:#000000;stroke-width:0.12214674;stroke-linecap:butt;stroke-linejoin:miter;stroke-miterlimit:4;stroke-opacity:1;stroke-dasharray:none" />
      <path
         inkscape:connector-curvature="0"
         id="path9260-0-6-60"
         d="m 512.52324,978.75123 6.60714,-71.60715"
         style="fill:none;stroke:#000000;stroke-width:0.12214674;stroke-linecap:butt;stroke-linejoin:miter;stroke-miterlimit:4;stroke-opacity:1;stroke-dasharray:none" />
      <path
         inkscape:connector-curvature="0"
         id="path9260-0-6-1-8"
         d="m 514.6661,979.73333 6.60714,-71.60712"
         style="fill:none;stroke:#000000;stroke-width:0.12214674;stroke-linecap:butt;stroke-linejoin:miter;stroke-miterlimit:4;stroke-opacity:1;stroke-dasharray:none" />
      <path
         inkscape:connector-curvature="0"
         id="path9260-0-6-6-4"
         d="m 517.20475,980.43073 6.60714,-71.60712"
         style="fill:none;stroke:#000000;stroke-width:0.12214674;stroke-linecap:butt;stroke-linejoin:miter;stroke-miterlimit:4;stroke-opacity:1;stroke-dasharray:none" />
      <path
         inkscape:connector-curvature="0"
         id="path9260-0-6-9-59"
         d="m 519.73013,981.18833 6.60714,-71.60711"
         style="fill:none;stroke:#000000;stroke-width:0.12214674;stroke-linecap:butt;stroke-linejoin:miter;stroke-miterlimit:4;stroke-opacity:1;stroke-dasharray:none" />
      <path
         inkscape:connector-curvature="0"
         id="path9260-0-6-6-4-4"
         d="m 521.97576,981.72093 6.60714,-71.60712"
         style="fill:none;stroke:#000000;stroke-width:0.12214674;stroke-linecap:butt;stroke-linejoin:miter;stroke-miterlimit:4;stroke-opacity:1;stroke-dasharray:none" />
      <path
         inkscape:connector-curvature="0"
         id="path9260-0-6-9-59-8"
         d="m 524.50114,982.47853 6.60714,-71.60711"
         style="fill:none;stroke:#000000;stroke-width:0.12214674;stroke-linecap:butt;stroke-linejoin:miter;stroke-miterlimit:4;stroke-opacity:1;stroke-dasharray:none" />
    </g>
  </g>
</svg>
